<?xml version="1.0" standalone="no"?>
<!DOCTYPE svg PUBLIC "-//W3C//DTD SVG 20010904//EN"
 "http://www.w3.org/TR/2001/REC-SVG-20010904/DTD/svg10.dtd">
<svg version="1.0" xmlns="http://www.w3.org/2000/svg"
 width="200.000000pt" height="200.000000pt" viewBox="0 0 200.000000 200.000000"
 preserveAspectRatio="xMidYMid meet">
<metadata>
Created by potrace 1.11, written by Peter Selinger 2001-2013
</metadata>
<g transform="translate(0.000000,200.000000) scale(0.100000,-0.100000)"
fill="#000000" stroke="none">
<path d="M892 1798 c-131 -19 -267 -86 -367 -180 -156 -145 -235 -342 -222
-552 18 -307 227 -559 530 -637 110 -28 275 -21 386 16 132 45 280 154 352
261 46 68 98 186 115 265 12 57 10 216 -4 278 -57 254 -241 455 -482 526 -97
29 -210 37 -308 23z"/>
<path d="M117 382 c-24 -27 -21 -59 9 -85 48 -40 55 -49 52 -66 -5 -25 -38
-26 -45 -2 -3 12 -12 21 -19 21 -30 0 -3 -44 33 -55 21 -6 63 23 63 43 0 9
-26 38 -59 64 -25 21 -27 60 -5 79 14 11 18 10 30 -6 8 -10 14 -27 14 -37 0
-10 4 -18 9 -18 18 0 21 33 6 56 -19 29 -65 32 -88 6z"/>
<path d="M1374 375 c-43 -43 -30 -166 19 -179 25 -6 67 18 67 39 0 21 -13 19
-28 -5 -29 -46 -63 -1 -55 74 5 54 18 75 43 69 18 -5 24 -15 21 -35 0 -5 6 -8
14 -8 35 0 5 57 -33 65 -16 3 -32 -4 -48 -20z"/>
<path d="M380 370 c0 -11 -7 -20 -15 -20 -8 0 -15 -4 -15 -10 0 -5 6 -10 14
-10 11 0 14 -15 13 -62 -1 -35 3 -63 9 -65 7 -2 10 20 9 62 -2 49 1 65 11 65
8 0 14 5 14 10 0 6 -4 10 -10 10 -5 0 -10 9 -10 20 0 11 -4 20 -10 20 -5 0
-10 -9 -10 -20z"/>
<path d="M436 323 c2 -38 3 -80 3 -95 1 -31 21 -39 21 -9 0 24 27 88 40 96 6
4 11 -6 12 -22 0 -15 2 -32 3 -38 2 -5 3 -20 4 -32 0 -13 5 -23 11 -23 5 0 8
17 6 38 -3 20 -5 46 -5 57 -3 47 -43 56 -57 13 -9 -30 -17 -14 -17 37 0 27 -4
45 -11 45 -8 0 -11 -22 -10 -67z"/>
<path d="M556 358 c4 -33 13 -51 15 -27 0 8 2 24 3 37 2 12 -3 22 -9 22 -8 0
-11 -12 -9 -32z"/>
<path d="M780 295 c0 -57 4 -95 10 -95 6 0 10 16 10 36 0 28 4 35 18 33 29 -3
42 1 42 11 0 6 -12 10 -28 10 -25 0 -28 3 -29 40 l-2 40 40 0 c24 0 38 4 34
10 -3 6 -26 10 -51 10 l-44 0 0 -95z"/>
<path d="M1240 360 c0 -28 -2 -30 -21 -19 -51 27 -95 -39 -70 -104 12 -30 47
-49 71 -37 8 4 21 5 28 3 9 -4 12 19 12 91 0 57 -4 96 -10 96 -5 0 -10 -14
-10 -30z m-19 -46 c28 -34 17 -104 -16 -104 -34 0 -54 72 -30 110 9 15 31 12
46 -6z"/>
<path d="M1487 383 c-2 -5 -2 -14 -1 -20 1 -7 2 -47 3 -88 0 -41 5 -75 9 -75
5 0 14 22 21 49 13 52 40 88 42 57 1 -9 3 -20 4 -26 1 -5 3 -26 4 -45 0 -19 6
-35 12 -35 14 0 3 121 -12 131 -17 10 -35 1 -47 -24 -9 -19 -11 -14 -11 31 -1
45 -12 67 -24 45z"/>
<path d="M1742 379 c2 -6 8 -10 13 -10 5 0 11 4 13 10 2 6 -4 11 -13 11 -9 0
-15 -5 -13 -11z"/>
<path d="M252 334 c-17 -11 -22 -25 -22 -57 0 -48 6 -59 36 -75 18 -10 27 -8
48 9 14 11 23 25 20 31 -4 7 -10 4 -16 -6 -12 -21 -54 -21 -62 0 -13 35 -7 41
42 40 44 -1 47 0 44 24 -7 46 -50 62 -90 34z m56 -16 c19 -19 14 -25 -23 -25
-19 0 -35 3 -35 7 0 10 23 30 35 30 6 0 16 -5 23 -12z"/>
<path d="M598 325 c-9 -20 -8 -28 6 -44 10 -11 28 -22 42 -25 27 -7 30 -18 10
-36 -12 -9 -18 -7 -32 9 -22 25 -38 17 -21 -9 15 -25 72 -27 81 -4 12 31 6 45
-26 59 -41 17 -48 23 -41 41 7 19 42 18 49 -1 7 -16 34 -21 34 -6 0 19 -32 41
-61 41 -22 0 -32 -7 -41 -25z"/>
<path d="M906 334 c-15 -15 -18 -25 -18 -59 0 -36 3 -46 21 -64 41 -41 97 8
88 76 -8 57 -57 82 -91 47z m67 -37 c12 -37 -5 -77 -32 -77 -11 0 -23 5 -26
11 -9 14 -9 75 0 89 13 20 48 6 58 -23z"/>
<path d="M1043 344 c-7 -3 -17 -20 -23 -39 -9 -26 -8 -41 3 -68 29 -68 94 -48
102 31 6 61 -32 96 -82 76z m57 -40 c13 -32 3 -72 -20 -84 -31 -17 -58 38 -41
84 14 35 48 35 61 0z"/>
<path d="M1628 330 c-13 -10 -20 -22 -16 -26 5 -4 16 -1 25 8 22 18 41 17 53
-2 17 -27 12 -40 -12 -31 -23 9 -67 -2 -69 -16 0 -4 -2 -16 -4 -26 -5 -26 36
-50 66 -39 13 5 29 7 36 5 8 -3 11 14 9 58 -2 49 -6 63 -22 72 -30 17 -42 17
-66 -3z m72 -91 c0 -10 -57 -29 -64 -22 -11 11 -6 41 7 46 14 5 57 -13 57 -24z"/>
<path d="M1747 333 c-8 -15 -1 -128 8 -128 5 0 10 30 11 68 3 58 -6 84 -19 60z"/>
<path d="M1800 271 c0 -39 4 -71 9 -71 5 0 14 22 21 50 12 49 39 88 41 59 1
-8 2 -18 4 -24 1 -5 3 -27 3 -47 1 -21 7 -38 13 -38 13 0 5 118 -9 132 -13 13
-38 0 -50 -25 l-11 -22 0 22 c-1 12 -5 25 -11 28 -6 4 -10 -20 -10 -64z"/>
</g>
</svg>
